<svg width="248px" height="142px" x="0px" y="0px" viewBox="0 0 248 142" xmlns="http://www.w3.org/2000/svg" version="1.1" style="transform: translate(0,0)"><rect x="0" y="0" width="248" height="142" style="fill:#ffffff;"/><g transform="translate(10, 10)" style="fill:#000000;"><text style="font: 20px OCR" text-anchor="start" x="0" y="122">1</text></g><g transform="translate(26, 10)" style="fill:#000000;"><rect x="0" y="0" width="2" height="112"/><rect x="4" y="0" width="2" height="112"/><rect x="10" y="0" width="4" height="112"/><rect x="18" y="0" width="2" height="112"/><text style="font: 20px OCR" text-anchor="middle" x="10" y="134"></text></g><g transform="translate(46, 10)" style="fill:#000000;"><rect x="5" y="0" width="2" height="100"/><rect x="11" y="0" width="4" height="100"/><rect x="17" y="0" width="8" height="100"/><rect x="27" y="0" width="2" height="100"/><rect x="31" y="0" width="2" height="100"/><rect x="39" y="0" width="4" height="100"/><rect x="45" y="0" width="4" height="100"/><rect x="55" y="0" width="2" height="100"/><rect x="59" y="0" width="2" height="100"/><rect x="63" y="0" width="8" height="100"/><text style="font: 20px OCR" text-anchor="start" x="0" y="122">23456</text></g><g transform="translate(119, 10)" style="fill:#000000;"><rect x="2" y="0" width="2" height="112"/><rect x="6" y="0" width="2" height="112"/><text style="font: 20px OCR" text-anchor="middle" x="5" y="134"></text></g><g transform="translate(129, 10)" style="fill:#000000;"><rect x="1" y="0" width="2" height="100"/><rect x="9" y="0" width="2" height="100"/><rect x="15" y="0" width="2" height="100"/><rect x="21" y="0" width="2" height="100"/><rect x="29" y="0" width="6" height="100"/><rect x="37" y="0" width="2" height="100"/><rect x="43" y="0" width="6" height="100"/><rect x="51" y="0" width="2" height="100"/><rect x="57" y="0" width="6" height="100"/><rect x="65" y="0" width="2" height="100"/><text style="font: 20px OCR" text-anchor="start" x="0" y="122">78999</text></g><g transform="translate(202, 10)" style="fill:#000000;"><rect x="0" y="0" width="6" height="112"/><rect x="8" y="0" width="2" height="112"/><rect x="14" y="0" width="2" height="112"/><rect x="18" y="0" width="2" height="112"/><text style="font: 20px OCR" text-anchor="middle" x="10" y="134"></text></g><g transform="translate(222, 10)" style="fill:#000000;"><text style="font: 20px OCR" text-anchor="end" x="15" y="122">9</text></g></svg>