<svg
  id="brand"
  xmlns="http://www.w3.org/2000/svg"
  width="191.02"
  height="178.31"
  viewBox="0 0 191.02 178.31"
>
  <defs>
    <style>
      .quasar-logo-text {
        fill: var(--color-default);
      }
      .cls-2 {
        fill: #fff;
      }
      .cls-3 {
        fill: #1976d2;
      }
      .cls-4 {
        fill: #42a5f5;
      }
    </style>
  </defs>
  <title>quasar-logo-full</title>
  <g>
    <path
      class="quasar-logo-text"
      d="M19.88,174.86l-1.05.07H10.26Q0,174.93,0,168.17V157.39q0-6.62,10.08-6.61h7.81q10.08,0,10.08,6.61v10.77a5.72,5.72,0,0,1-3.57,5.64l2.48,1.71c.73.44,1.09.9,1.09,1.37a1.17,1.17,0,0,1-.56,1.05,2.58,2.58,0,0,1-1.51.38,2.83,2.83,0,0,1-1.47-.49l-4.55-3Zm4.31-17.4c0-2.54-2.13-3.81-6.37-3.81H10.15c-4.24,0-6.37,1.27-6.37,3.81v10.7q0,4,6.65,4h7.11c4.43,0,6.64-1.33,6.65-4Z"
    />
    <path
      class="quasar-logo-text"
      d="M47.62,175q-9,0-9-5.53V159.28c0-1,.62-1.47,1.85-1.47s1.86.49,1.86,1.47V169.5q0,2.66,5.18,2.66h6.65q5.18,0,5.18-2.66V159.28c0-1,.62-1.47,1.85-1.47s1.89.49,1.89,1.47v10.19q0,5.52-9,5.53Z"
    />
    <path
      class="quasar-logo-text"
      d="M80.24,175q-7.48,0-7.49-4.66v-2q0-4.62,7.49-4.62H95.12v-.56c0-1.63-1.44-2.44-4.31-2.45H85.87c-1.16,0-1.75-.45-1.75-1.36s.59-1.4,1.75-1.4h4.94q8,0,8,5.21V170q0,4.93-7.64,4.94Zm10.68-2.73q4.2,0,4.2-2.31v-3.8H80.54c-2.73,0-4.1.71-4.09,2.14v1.82c0,1.44,1.36,2.17,4.09,2.17Z"
    />
    <path
      class="quasar-logo-text"
      d="M131.85,171.08q0,3.91-8,3.92H110.22c-1.17,0-1.75-.46-1.75-1.37s.58-1.36,1.75-1.36h13.65c2.87,0,4.31-.4,4.31-1.19v-2c0-.8-1.44-1.19-4.31-1.19h-7.21c-5.32,0-8-1.28-8-3.82v-1.64q0-4.49,8.23-4.48h4.79c1.19,0,1.79.46,1.79,1.4a1.24,1.24,0,0,1-.49,1.05,2.28,2.28,0,0,1-1.3.31h-4.79q-4.59,0-4.59,1.72V164c0,1,1.52,1.43,4.55,1.43h7.21q7.77,0,7.77,3.57V171Z"
    />
    <path
      class="quasar-logo-text"
      d="M148.54,175q-7.48,0-7.49-4.66v-2q0-4.62,7.49-4.62h14.88v-.56c0-1.63-1.44-2.44-4.31-2.45h-4.93c-1.17,0-1.75-.45-1.75-1.36s.58-1.4,1.75-1.4h4.93q8,0,7.95,5.21V170q0,4.93-7.63,4.94Zm10.68-2.73q4.2,0,4.2-2.31v-3.8h-14.6c-2.73,0-4.1.71-4.09,2.14v1.82c0,1.44,1.36,2.17,4.09,2.17Z"
    />
    <path
      class="quasar-logo-text"
      d="M177.54,163.55q0-5.56,9-5.56h2.69c1.19,0,1.79.47,1.79,1.43s-.6,1.44-1.79,1.44H186.4c-3.45,0-5.17.87-5.18,2.62V173.7q0,1.47-1.86,1.47c-1.23,0-1.85-.49-1.85-1.47V163.55Z"
    />
  </g>
  <g>
    <circle class="cls-2" cx="93.95" cy="62.92" r="62.92" />
    <path
      class="cls-1"
      d="M104.25,62.92A10.29,10.29,0,0,1,94,73.21h0A10.29,10.29,0,0,1,83.66,62.92h0a10.3,10.3,0,0,1,20.59,0Z"
    />
    <path
      class="cls-3"
      d="M139.65,36.53A53,53,0,0,0,131.54,26l-11.9,6.87a39.55,39.55,0,0,0-12.42-7.2A48.49,48.49,0,0,0,97.6,39.35c13.25-.9,26.93,3.9,39.63,13.82l7.49-4.32a52.84,52.84,0,0,0-5.09-12.32Z"
    />
    <path
      class="cls-4"
      d="M139.65,89.3A52.08,52.08,0,0,0,144.76,77l-11.9-6.85a39.83,39.83,0,0,0,0-14.36,49.22,49.22,0,0,0-16.7-1.47c7.41,11,10.1,25.27,7.85,41.23l7.49,4.33a53.08,53.08,0,0,0,8.12-10.57Z"
    />
    <path
      class="cls-3"
      d="M94,115.69a53,53,0,0,0,13.2-1.72V100.23a39.78,39.78,0,0,0,12.45-7.16,48.86,48.86,0,0,0-7.06-15.19C106.69,89.8,95.7,99.25,80.76,105.29v8.65A52.44,52.44,0,0,0,94,115.69Z"
    />
    <path
      class="cls-4"
      d="M48.26,89.31a52.52,52.52,0,0,0,8.08,10.57L68.24,93a39.49,39.49,0,0,0,12.43,7.2,48.94,48.94,0,0,0,9.61-13.72c-13.24.9-26.92-3.9-39.63-13.82L43.16,77a52.84,52.84,0,0,0,5.09,12.32Z"
    />
    <path
      class="cls-3"
      d="M48.25,36.54a53.12,53.12,0,0,0-5.11,12.29L55,55.7a39.83,39.83,0,0,0,0,14.36,49.16,49.16,0,0,0,16.69,1.47c-7.41-11-10.09-25.27-7.85-41.23L56.39,26A53.18,53.18,0,0,0,48.25,36.54Z"
    />
    <path
      class="cls-4"
      d="M94,10.16a53,53,0,0,0-13.2,1.72V25.61A39.78,39.78,0,0,0,68.3,32.77,49.14,49.14,0,0,0,75.38,48C81.22,36,92.21,26.59,107.16,20.55V11.9A52.58,52.58,0,0,0,94,10.16Z"
    />
  </g>
</svg>
